<mxfile host="65bd71144e">
    <diagram name="doRegisterBean" id="cHMwaBsLjqVxTSgTj4wU">
        <mxGraphModel dx="2507" dy="1139" grid="1" gridSize="10" guides="1" tooltips="1" connect="1" arrows="1" fold="1" page="1" pageScale="1" pageWidth="827" pageHeight="1169" math="0" shadow="0">
            <root>
                <mxCell id="0"/>
                <mxCell id="1" parent="0"/>
                <mxCell id="2Bh3dIUgWGiQJgTyW035-1" value="&lt;b style=&quot;font-size: 14px;&quot;&gt;&lt;font style=&quot;font-size: 14px;&quot;&gt;org.springframework.context.annotation.AnnotatedBeanDefinitionReader#doRegisterBean&lt;/font&gt;&lt;/b&gt;" style="text;html=1;strokeColor=none;fillColor=none;align=center;verticalAlign=middle;whiteSpace=wrap;rounded=0;fontSize=14;" parent="1" vertex="1">
                    <mxGeometry x="-10" y="20" width="720" height="70" as="geometry"/>
                </mxCell>
                <mxCell id="2Bh3dIUgWGiQJgTyW035-4" value="" style="edgeStyle=orthogonalEdgeStyle;rounded=0;orthogonalLoop=1;jettySize=auto;html=1;fontSize=14;" parent="1" source="2Bh3dIUgWGiQJgTyW035-2" target="2Bh3dIUgWGiQJgTyW035-3" edge="1">
                    <mxGeometry relative="1" as="geometry"/>
                </mxCell>
                <mxCell id="2Bh3dIUgWGiQJgTyW035-2" value="" style="ellipse;whiteSpace=wrap;html=1;aspect=fixed;fontSize=14;" parent="1" vertex="1">
                    <mxGeometry x="310" y="90" width="80" height="80" as="geometry"/>
                </mxCell>
                <mxCell id="2Bh3dIUgWGiQJgTyW035-6" value="" style="edgeStyle=orthogonalEdgeStyle;rounded=0;orthogonalLoop=1;jettySize=auto;html=1;fontSize=14;" parent="1" source="2Bh3dIUgWGiQJgTyW035-3" target="2Bh3dIUgWGiQJgTyW035-5" edge="1">
                    <mxGeometry relative="1" as="geometry"/>
                </mxCell>
                <mxCell id="2Bh3dIUgWGiQJgTyW035-3" value="&lt;div style=&quot;font-family: &amp;quot;Courier New&amp;quot;, monospace; font-size: 14px;&quot;&gt;创建类对应的&lt;span style=&quot;font-family: &amp;quot;Fira Code Medium&amp;quot;, monospace; font-size: 14px;&quot;&gt;bean&lt;/span&gt;&lt;span style=&quot;font-size: 14px;&quot;&gt;定义实例&lt;/span&gt;&lt;/div&gt;&lt;div style=&quot;font-family: &amp;quot;Courier New&amp;quot;, monospace; font-size: 14px;&quot;&gt;&lt;span style=&quot;font-family: &amp;quot;Fira Code Medium&amp;quot;, monospace; font-size: 14px;&quot;&gt;AnnotatedGenericBeanDefinition&lt;br style=&quot;font-size: 14px;&quot;&gt;&lt;br style=&quot;font-size: 14px;&quot;&gt;&lt;/span&gt;&lt;/div&gt;&lt;div style=&quot;font-size: 14px;&quot;&gt;&lt;font face=&quot;Fira Code Medium, monospace&quot; style=&quot;font-size: 14px;&quot;&gt;通过&lt;/font&gt;&lt;font color=&quot;#0000ff&quot; style=&quot;font-size: 14px;&quot;&gt;&lt;b style=&quot;font-size: 14px;&quot;&gt;AnnotationMetadata.&lt;span style=&quot;font-family: &amp;quot;Fira Code Medium&amp;quot;, monospace; font-size: 14px; font-style: italic;&quot;&gt;introspect&lt;/span&gt;&lt;/b&gt;&lt;/font&gt;&lt;span style=&quot;font-family: &amp;quot;Fira Code Medium&amp;quot;, monospace; background-color: initial; font-size: 14px;&quot;&gt;提取类的注解信息。&lt;/span&gt;&lt;/div&gt;" style="whiteSpace=wrap;html=1;labelBackgroundColor=none;fontColor=#000000;fontSize=14;align=left;" parent="1" vertex="1">
                    <mxGeometry x="175" y="210" width="350" height="90" as="geometry"/>
                </mxCell>
                <mxCell id="2Bh3dIUgWGiQJgTyW035-12" value="" style="edgeStyle=orthogonalEdgeStyle;rounded=0;orthogonalLoop=1;jettySize=auto;html=1;fontSize=14;" parent="1" source="2Bh3dIUgWGiQJgTyW035-5" target="2Bh3dIUgWGiQJgTyW035-11" edge="1">
                    <mxGeometry relative="1" as="geometry"/>
                </mxCell>
                <mxCell id="2Bh3dIUgWGiQJgTyW035-5" value="通过conditionEvaluator判断是否满足注册条件" style="whiteSpace=wrap;html=1;fontSize=14;labelBackgroundColor=none;fillColor=#ffe6cc;strokeColor=#d79b00;" parent="1" vertex="1">
                    <mxGeometry x="190" y="350" width="320" height="60" as="geometry"/>
                </mxCell>
                <mxCell id="2Bh3dIUgWGiQJgTyW035-7" value="&lt;div style=&quot;font-family: &amp;quot;Fira Code Medium&amp;quot;, monospace; font-size: 14px;&quot;&gt;private &lt;span style=&quot;font-size: 14px;&quot;&gt;&amp;lt;&lt;/span&gt;&lt;span style=&quot;font-size: 14px;&quot;&gt;T&lt;/span&gt;&lt;span style=&quot;font-size: 14px;&quot;&gt;&amp;gt; &lt;/span&gt;&lt;span style=&quot;font-size: 14px;&quot;&gt;void &lt;/span&gt;&lt;span style=&quot;font-size: 14px;&quot;&gt;doRegisterBean&lt;/span&gt;&lt;span style=&quot;font-size: 14px;&quot;&gt;(&lt;/span&gt;Class&lt;span style=&quot;font-size: 14px;&quot;&gt;&amp;lt;&lt;/span&gt;&lt;span style=&quot;font-size: 14px;&quot;&gt;T&lt;/span&gt;&lt;span style=&quot;font-size: 14px;&quot;&gt;&amp;gt; &lt;/span&gt;beanClass,&lt;/div&gt;&lt;div style=&quot;font-family: &amp;quot;Fira Code Medium&amp;quot;, monospace; font-size: 14px;&quot;&gt;&lt;span style=&quot;font-size: 14px;&quot;&gt;&lt;span style=&quot;white-space: pre; font-size: 14px;&quot;&gt;&#9;&lt;/span&gt;@Nullable &lt;/span&gt;String name,&lt;br style=&quot;font-size: 14px;&quot;&gt;        &lt;span style=&quot;font-size: 14px;&quot;&gt;&lt;span style=&quot;white-space: pre; font-size: 14px;&quot;&gt;&#9;&lt;/span&gt;@Nullable &lt;/span&gt;Class&lt;span style=&quot;font-size: 14px;&quot;&gt;&amp;lt;&lt;/span&gt;? &lt;span style=&quot;font-size: 14px;&quot;&gt;extends &lt;/span&gt;Annotation&lt;span style=&quot;font-size: 14px;&quot;&gt;&amp;gt;[] &lt;/span&gt;qualifiers,&amp;nbsp;&lt;/div&gt;&lt;div style=&quot;font-family: &amp;quot;Fira Code Medium&amp;quot;, monospace; font-size: 14px;&quot;&gt;&lt;span style=&quot;font-size: 14px; background-color: initial;&quot;&gt;&lt;span style=&quot;white-space: pre; font-size: 14px;&quot;&gt;&#9;&lt;/span&gt;@Nullable &lt;/span&gt;&lt;span style=&quot;font-size: 14px; background-color: initial;&quot;&gt;Supplier&lt;/span&gt;&lt;span style=&quot;font-size: 14px; background-color: initial;&quot;&gt;&amp;lt;&lt;/span&gt;&lt;span style=&quot;font-size: 14px; background-color: initial;&quot;&gt;T&lt;/span&gt;&lt;span style=&quot;font-size: 14px; background-color: initial;&quot;&gt;&amp;gt; &lt;/span&gt;&lt;span style=&quot;font-size: 14px; background-color: initial;&quot;&gt;supplier,&lt;/span&gt;&lt;/div&gt;&lt;div style=&quot;font-family: &amp;quot;Fira Code Medium&amp;quot;, monospace; font-size: 14px;&quot;&gt;&lt;span style=&quot;font-size: 14px; background-color: initial;&quot;&gt;&lt;span style=&quot;white-space: pre; font-size: 14px;&quot;&gt;&#9;&lt;/span&gt;@Nullable &lt;/span&gt;&lt;span style=&quot;font-size: 14px; background-color: initial;&quot;&gt;BeanDefinitionCustomizer&lt;/span&gt;&lt;span style=&quot;font-size: 14px; background-color: initial;&quot;&gt;[] &lt;/span&gt;&lt;span style=&quot;font-size: 14px; background-color: initial;&quot;&gt;customizers&lt;/span&gt;&lt;span style=&quot;font-size: 14px; background-color: initial;&quot;&gt;)&lt;/span&gt;&lt;br style=&quot;font-size: 14px;&quot;&gt;&lt;/div&gt;&lt;div style=&quot;font-family: &amp;quot;Fira Code Medium&amp;quot;, monospace; font-size: 14px;&quot;&gt;&lt;span style=&quot;font-size: 14px;&quot;&gt;&lt;br style=&quot;font-size: 14px;&quot;&gt;&lt;div style=&quot;font-size: 14px;&quot;&gt;从给定的 bean 类注册一个 bean，从类声明的注释中派生其元数据。&lt;/div&gt;&lt;div style=&quot;font-size: 14px;&quot;&gt;参数：&lt;/div&gt;&lt;div style=&quot;font-size: 14px;&quot;&gt;beanClass – bean 的类&amp;nbsp;&lt;/div&gt;&lt;div style=&quot;font-size: 14px;&quot;&gt;name – bean 的显式名称&amp;nbsp;&lt;/div&gt;&lt;div style=&quot;font-size: 14px;&quot;&gt;qualifiers – 除了 bean 类级别的限定符之外，要考虑的特定限定符注释（如果有）&amp;nbsp;&lt;/div&gt;&lt;div style=&quot;font-size: 14px;&quot;&gt;supplier – 创建 bean 实例的回调（可能为null ）&amp;nbsp;&lt;/div&gt;&lt;div style=&quot;font-size: 14px;&quot;&gt;customizers - 用于定制工厂的BeanDefinition的一个或多个回调，例如设置惰性初始化或主要标志&lt;/div&gt;&lt;/span&gt;&lt;/div&gt;&lt;div style=&quot;font-family: &amp;quot;Fira Code Medium&amp;quot;, monospace; font-size: 14px;&quot;&gt;&lt;span style=&quot;font-size: 14px;&quot;&gt;&lt;br style=&quot;font-size: 14px;&quot;&gt;&lt;/span&gt;&lt;/div&gt;" style="text;html=1;strokeColor=#6c8ebf;fillColor=#dae8fc;align=left;verticalAlign=middle;whiteSpace=wrap;rounded=0;labelBackgroundColor=none;fontSize=14;" parent="1" vertex="1">
                    <mxGeometry x="590" y="80" width="510" height="320" as="geometry"/>
                </mxCell>
                <mxCell id="2Bh3dIUgWGiQJgTyW035-23" value="beanDefinition相关属性设置" style="swimlane;whiteSpace=wrap;html=1;fontSize=14;" parent="1" vertex="1">
                    <mxGeometry x="130" y="450" width="510" height="860" as="geometry">
                        <mxRectangle x="130" y="450" width="200" height="30" as="alternateBounds"/>
                    </mxGeometry>
                </mxCell>
                <mxCell id="2Bh3dIUgWGiQJgTyW035-11" value="设置beanDefinition：&lt;br style=&quot;font-size: 14px;&quot;&gt;类实例化方法supplier" style="whiteSpace=wrap;html=1;fontSize=14;labelBackgroundColor=none;align=left;" parent="2Bh3dIUgWGiQJgTyW035-23" vertex="1">
                    <mxGeometry x="140" y="50" width="160" height="60" as="geometry"/>
                </mxCell>
                <mxCell id="2Bh3dIUgWGiQJgTyW035-13" value="设置beanDefinition：&lt;br style=&quot;font-size: 14px;&quot;&gt;通过scopeMetadataResolver获取bean的作用域" style="whiteSpace=wrap;html=1;fontSize=14;labelBackgroundColor=none;align=left;" parent="2Bh3dIUgWGiQJgTyW035-23" vertex="1">
                    <mxGeometry x="90" y="190" width="260" height="60" as="geometry"/>
                </mxCell>
                <mxCell id="2Bh3dIUgWGiQJgTyW035-14" value="" style="edgeStyle=orthogonalEdgeStyle;rounded=0;orthogonalLoop=1;jettySize=auto;html=1;fontSize=14;" parent="2Bh3dIUgWGiQJgTyW035-23" source="2Bh3dIUgWGiQJgTyW035-11" target="2Bh3dIUgWGiQJgTyW035-13" edge="1">
                    <mxGeometry relative="1" as="geometry"/>
                </mxCell>
                <mxCell id="2Bh3dIUgWGiQJgTyW035-17" value="&lt;div style=&quot;font-size: 14px;&quot;&gt;&lt;span style=&quot;background-color: initial; font-size: 14px;&quot;&gt;设置&lt;/span&gt;&lt;span style=&quot;background-color: initial; border-color: var(--border-color); font-family: &amp;quot;Fira Code Medium&amp;quot;, monospace; font-size: 14px;&quot;&gt;beanDefinition：&lt;/span&gt;&lt;/div&gt;&lt;div style=&quot;font-size: 14px;&quot;&gt;&lt;span style=&quot;font-family: &amp;quot;Courier New&amp;quot;, monospace; font-size: 14px; background-color: initial;&quot;&gt;提取&lt;/span&gt;&lt;span style=&quot;font-size: 14px; background-color: initial; font-family: &amp;quot;Fira Code Medium&amp;quot;, monospace;&quot;&gt;@Lazy @DependsOn  @Role  @Description&lt;/span&gt;&lt;span style=&quot;font-family: &amp;quot;Courier New&amp;quot;, monospace; font-size: 14px; background-color: initial;&quot;&gt;注解的配置，&lt;/span&gt;&lt;/div&gt;" style="whiteSpace=wrap;html=1;fontSize=14;labelBackgroundColor=none;align=left;" parent="2Bh3dIUgWGiQJgTyW035-23" vertex="1">
                    <mxGeometry x="100" y="460" width="240" height="70" as="geometry"/>
                </mxCell>
                <mxCell id="2Bh3dIUgWGiQJgTyW035-19" value="设置&lt;span style=&quot;border-color: var(--border-color); background-color: initial; font-family: &amp;quot;Fira Code Medium&amp;quot;, monospace; font-size: 14px;&quot;&gt;beanDefinition：&lt;br style=&quot;font-size: 14px;&quot;&gt;提取@Primary @Lazy及其他&lt;/span&gt;AutowireCandidateQualifier" style="whiteSpace=wrap;html=1;fontSize=14;align=left;labelBackgroundColor=none;" parent="2Bh3dIUgWGiQJgTyW035-23" vertex="1">
                    <mxGeometry x="110" y="620" width="220" height="60" as="geometry"/>
                </mxCell>
                <mxCell id="2Bh3dIUgWGiQJgTyW035-20" value="" style="edgeStyle=orthogonalEdgeStyle;rounded=0;orthogonalLoop=1;jettySize=auto;html=1;fontSize=14;" parent="2Bh3dIUgWGiQJgTyW035-23" source="2Bh3dIUgWGiQJgTyW035-17" target="2Bh3dIUgWGiQJgTyW035-19" edge="1">
                    <mxGeometry relative="1" as="geometry"/>
                </mxCell>
                <mxCell id="2Bh3dIUgWGiQJgTyW035-21" value="调用BeanDefinitionCustomizer，用于修改BeanDefinition" style="whiteSpace=wrap;html=1;fontSize=14;align=left;labelBackgroundColor=none;" parent="2Bh3dIUgWGiQJgTyW035-23" vertex="1">
                    <mxGeometry x="80" y="760" width="280" height="60" as="geometry"/>
                </mxCell>
                <mxCell id="2Bh3dIUgWGiQJgTyW035-22" value="" style="edgeStyle=orthogonalEdgeStyle;rounded=0;orthogonalLoop=1;jettySize=auto;html=1;fontSize=14;" parent="2Bh3dIUgWGiQJgTyW035-23" source="2Bh3dIUgWGiQJgTyW035-19" target="2Bh3dIUgWGiQJgTyW035-21" edge="1">
                    <mxGeometry relative="1" as="geometry"/>
                </mxCell>
                <mxCell id="2Bh3dIUgWGiQJgTyW035-15" value="生成beanName" style="whiteSpace=wrap;html=1;fontSize=14;labelBackgroundColor=none;" parent="2Bh3dIUgWGiQJgTyW035-23" vertex="1">
                    <mxGeometry x="160" y="330" width="120" height="60" as="geometry"/>
                </mxCell>
                <mxCell id="2Bh3dIUgWGiQJgTyW035-16" value="" style="edgeStyle=orthogonalEdgeStyle;rounded=0;orthogonalLoop=1;jettySize=auto;html=1;fontSize=14;" parent="2Bh3dIUgWGiQJgTyW035-23" source="2Bh3dIUgWGiQJgTyW035-13" target="2Bh3dIUgWGiQJgTyW035-15" edge="1">
                    <mxGeometry relative="1" as="geometry"/>
                </mxCell>
                <mxCell id="2Bh3dIUgWGiQJgTyW035-18" value="" style="edgeStyle=orthogonalEdgeStyle;rounded=0;orthogonalLoop=1;jettySize=auto;html=1;fontSize=14;" parent="2Bh3dIUgWGiQJgTyW035-23" source="2Bh3dIUgWGiQJgTyW035-15" target="2Bh3dIUgWGiQJgTyW035-17" edge="1">
                    <mxGeometry relative="1" as="geometry"/>
                </mxCell>
                <mxCell id="2Bh3dIUgWGiQJgTyW035-25" value="" style="edgeStyle=orthogonalEdgeStyle;rounded=0;orthogonalLoop=1;jettySize=auto;html=1;fontSize=14;" parent="1" source="2Bh3dIUgWGiQJgTyW035-21" target="2Bh3dIUgWGiQJgTyW035-24" edge="1">
                    <mxGeometry relative="1" as="geometry"/>
                </mxCell>
                <mxCell id="2Bh3dIUgWGiQJgTyW035-26" value="创建BeanDefinitionHolder，并通过代理重新生成BeanDefinitionHolder" style="swimlane;whiteSpace=wrap;html=1;align=center;fontSize=14;" parent="1" vertex="1">
                    <mxGeometry x="140" y="1410" width="760" height="1080" as="geometry">
                        <mxRectangle x="140" y="1410" width="490" height="30" as="alternateBounds"/>
                    </mxGeometry>
                </mxCell>
                <mxCell id="2Bh3dIUgWGiQJgTyW035-28" value="" style="edgeStyle=orthogonalEdgeStyle;rounded=0;orthogonalLoop=1;jettySize=auto;html=1;fontSize=14;" parent="2Bh3dIUgWGiQJgTyW035-26" source="2Bh3dIUgWGiQJgTyW035-24" target="2Bh3dIUgWGiQJgTyW035-27" edge="1">
                    <mxGeometry relative="1" as="geometry"/>
                </mxCell>
                <mxCell id="2Bh3dIUgWGiQJgTyW035-24" value="获取beanDefinition的代理策略" style="whiteSpace=wrap;html=1;fontSize=14;align=left;labelBackgroundColor=none;" parent="2Bh3dIUgWGiQJgTyW035-26" vertex="1">
                    <mxGeometry x="110" y="60" width="200" height="60" as="geometry"/>
                </mxCell>
                <mxCell id="2Bh3dIUgWGiQJgTyW035-30" value="" style="edgeStyle=orthogonalEdgeStyle;rounded=0;orthogonalLoop=1;jettySize=auto;html=1;fontSize=14;" parent="2Bh3dIUgWGiQJgTyW035-26" source="2Bh3dIUgWGiQJgTyW035-27" target="2Bh3dIUgWGiQJgTyW035-29" edge="1">
                    <mxGeometry relative="1" as="geometry"/>
                </mxCell>
                <mxCell id="2Bh3dIUgWGiQJgTyW035-31" value="是" style="edgeLabel;html=1;align=center;verticalAlign=middle;resizable=0;points=[];fontSize=14;" parent="2Bh3dIUgWGiQJgTyW035-30" vertex="1" connectable="0">
                    <mxGeometry x="-0.1556" y="-3" relative="1" as="geometry">
                        <mxPoint as="offset"/>
                    </mxGeometry>
                </mxCell>
                <mxCell id="2Bh3dIUgWGiQJgTyW035-35" value="否" style="edgeLabel;html=1;align=center;verticalAlign=middle;resizable=0;points=[];fontSize=14;" parent="2Bh3dIUgWGiQJgTyW035-30" vertex="1" connectable="0">
                    <mxGeometry x="-0.1556" y="-3" relative="1" as="geometry">
                        <mxPoint as="offset"/>
                    </mxGeometry>
                </mxCell>
                <mxCell id="2Bh3dIUgWGiQJgTyW035-33" value="" style="edgeStyle=orthogonalEdgeStyle;rounded=0;orthogonalLoop=1;jettySize=auto;html=1;fontSize=14;" parent="2Bh3dIUgWGiQJgTyW035-26" source="2Bh3dIUgWGiQJgTyW035-27" target="2Bh3dIUgWGiQJgTyW035-32" edge="1">
                    <mxGeometry relative="1" as="geometry"/>
                </mxCell>
                <mxCell id="2Bh3dIUgWGiQJgTyW035-34" value="是" style="edgeLabel;html=1;align=center;verticalAlign=middle;resizable=0;points=[];fontSize=14;" parent="2Bh3dIUgWGiQJgTyW035-33" vertex="1" connectable="0">
                    <mxGeometry x="-0.312" y="-2" relative="1" as="geometry">
                        <mxPoint as="offset"/>
                    </mxGeometry>
                </mxCell>
                <mxCell id="2Bh3dIUgWGiQJgTyW035-27" value="&lt;div style=&quot;font-family: &amp;quot;Fira Code Medium&amp;quot;, monospace; font-size: 14px;&quot;&gt;策略为：ScopedProxyMode.NO&lt;/div&gt;&lt;div style=&quot;font-family: &amp;quot;Fira Code Medium&amp;quot;, monospace; font-size: 14px;&quot;&gt;（不使用代理）&lt;/div&gt;" style="rhombus;whiteSpace=wrap;html=1;fontSize=14;align=center;labelBackgroundColor=none;" parent="2Bh3dIUgWGiQJgTyW035-26" vertex="1">
                    <mxGeometry x="80" y="200" width="260" height="80" as="geometry"/>
                </mxCell>
                <mxCell id="mVQS20FEdNlK2eIB7Ec5-2" value="" style="edgeStyle=orthogonalEdgeStyle;rounded=0;orthogonalLoop=1;jettySize=auto;html=1;fontSize=14;" parent="2Bh3dIUgWGiQJgTyW035-26" source="2Bh3dIUgWGiQJgTyW035-29" target="mVQS20FEdNlK2eIB7Ec5-1" edge="1">
                    <mxGeometry relative="1" as="geometry"/>
                </mxCell>
                <mxCell id="2Bh3dIUgWGiQJgTyW035-29" value="创建一个ScopedProxyFactoryBean.class的RootBeanDefinition的实例proxyDefinition" style="whiteSpace=wrap;html=1;fontSize=14;labelBackgroundColor=none;align=left;" parent="2Bh3dIUgWGiQJgTyW035-26" vertex="1">
                    <mxGeometry x="60" y="370" width="300" height="60" as="geometry"/>
                </mxCell>
                <mxCell id="2Bh3dIUgWGiQJgTyW035-32" value="返回当前beanDefinitionHolder" style="whiteSpace=wrap;html=1;fontSize=14;labelBackgroundColor=none;" parent="2Bh3dIUgWGiQJgTyW035-26" vertex="1">
                    <mxGeometry x="487" y="790" width="200" height="60" as="geometry"/>
                </mxCell>
                <mxCell id="mVQS20FEdNlK2eIB7Ec5-8" value="" style="edgeStyle=orthogonalEdgeStyle;rounded=0;orthogonalLoop=1;jettySize=auto;html=1;fontSize=14;" parent="2Bh3dIUgWGiQJgTyW035-26" source="mVQS20FEdNlK2eIB7Ec5-1" target="mVQS20FEdNlK2eIB7Ec5-7" edge="1">
                    <mxGeometry relative="1" as="geometry"/>
                </mxCell>
                <mxCell id="mVQS20FEdNlK2eIB7Ec5-1" value="&lt;b style=&quot;font-size: 14px;&quot;&gt;设置代理bean定义的相关属性。&lt;br style=&quot;font-size: 14px;&quot;&gt;&lt;/b&gt;最初的beanDefinition称为目标bean定义，作为代理bean定义的成员参数" style="whiteSpace=wrap;html=1;fontSize=14;align=left;labelBackgroundColor=none;" parent="2Bh3dIUgWGiQJgTyW035-26" vertex="1">
                    <mxGeometry x="90" y="510" width="240" height="60" as="geometry"/>
                </mxCell>
                <mxCell id="mVQS20FEdNlK2eIB7Ec5-10" value="" style="edgeStyle=orthogonalEdgeStyle;rounded=0;orthogonalLoop=1;jettySize=auto;html=1;fontSize=14;" parent="2Bh3dIUgWGiQJgTyW035-26" source="mVQS20FEdNlK2eIB7Ec5-7" target="mVQS20FEdNlK2eIB7Ec5-9" edge="1">
                    <mxGeometry relative="1" as="geometry"/>
                </mxCell>
                <mxCell id="mVQS20FEdNlK2eIB7Ec5-7" value="从原始bean定义获取相关属性，并赋值到代理bean定义中" style="whiteSpace=wrap;html=1;fontSize=14;align=left;labelBackgroundColor=none;" parent="2Bh3dIUgWGiQJgTyW035-26" vertex="1">
                    <mxGeometry x="80" y="650" width="260" height="60" as="geometry"/>
                </mxCell>
                <mxCell id="mVQS20FEdNlK2eIB7Ec5-12" value="" style="edgeStyle=orthogonalEdgeStyle;rounded=0;orthogonalLoop=1;jettySize=auto;html=1;fontSize=14;" parent="2Bh3dIUgWGiQJgTyW035-26" source="mVQS20FEdNlK2eIB7Ec5-9" target="mVQS20FEdNlK2eIB7Ec5-11" edge="1">
                    <mxGeometry relative="1" as="geometry"/>
                </mxCell>
                <mxCell id="mVQS20FEdNlK2eIB7Ec5-9" value="注册原始bean定义，注册使用的beanName非原始的，添加了&lt;font color=&quot;#0000ff&quot; style=&quot;font-size: 14px;&quot;&gt;scopedTarget.&lt;/font&gt;前缀" style="whiteSpace=wrap;html=1;fontSize=14;align=left;labelBackgroundColor=none;" parent="2Bh3dIUgWGiQJgTyW035-26" vertex="1">
                    <mxGeometry x="60" y="790" width="300" height="60" as="geometry"/>
                </mxCell>
                <mxCell id="mVQS20FEdNlK2eIB7Ec5-11" value="创建代理bean定义的BeanDefinitionHolder，使用原始bean定义的beanName，及别名" style="whiteSpace=wrap;html=1;fontSize=14;align=left;labelBackgroundColor=none;" parent="2Bh3dIUgWGiQJgTyW035-26" vertex="1">
                    <mxGeometry x="40" y="930" width="340" height="60" as="geometry"/>
                </mxCell>
                <mxCell id="mVQS20FEdNlK2eIB7Ec5-18" value="" style="edgeStyle=orthogonalEdgeStyle;rounded=0;orthogonalLoop=1;jettySize=auto;html=1;entryX=0.5;entryY=0;entryDx=0;entryDy=0;fontSize=14;" parent="1" source="mVQS20FEdNlK2eIB7Ec5-13" target="317DEmD2zfVz-tkHJyiM-5" edge="1">
                    <mxGeometry relative="1" as="geometry">
                        <mxPoint x="350" y="2800" as="targetPoint"/>
                    </mxGeometry>
                </mxCell>
                <mxCell id="mVQS20FEdNlK2eIB7Ec5-13" value="&lt;div style=&quot;font-family: &amp;quot;Fira Code Medium&amp;quot;, monospace; font-size: 14px;&quot;&gt;&lt;b style=&quot;font-size: 14px;&quot;&gt;注册bean定义&lt;/b&gt;&lt;br style=&quot;font-size: 14px;&quot;&gt;&lt;div style=&quot;font-size: 14px;&quot;&gt;方法：BeanDefinitionReaderUtils.&lt;br style=&quot;font-size: 14px;&quot;&gt;registerBeanDefinition&lt;/div&gt;&lt;/div&gt;" style="whiteSpace=wrap;html=1;fontSize=14;align=left;labelBackgroundColor=none;" parent="1" vertex="1">
                    <mxGeometry x="200" y="2560" width="300" height="80" as="geometry"/>
                </mxCell>
                <mxCell id="mVQS20FEdNlK2eIB7Ec5-14" value="" style="edgeStyle=orthogonalEdgeStyle;rounded=0;orthogonalLoop=1;jettySize=auto;html=1;fontSize=14;" parent="1" source="mVQS20FEdNlK2eIB7Ec5-11" target="mVQS20FEdNlK2eIB7Ec5-13" edge="1">
                    <mxGeometry relative="1" as="geometry"/>
                </mxCell>
                <mxCell id="mVQS20FEdNlK2eIB7Ec5-16" style="edgeStyle=orthogonalEdgeStyle;rounded=0;orthogonalLoop=1;jettySize=auto;html=1;exitX=0.5;exitY=1;exitDx=0;exitDy=0;entryX=1;entryY=0.5;entryDx=0;entryDy=0;fontSize=14;" parent="1" source="2Bh3dIUgWGiQJgTyW035-32" target="mVQS20FEdNlK2eIB7Ec5-13" edge="1">
                    <mxGeometry relative="1" as="geometry"/>
                </mxCell>
                <mxCell id="317DEmD2zfVz-tkHJyiM-1" value="使用BeanDefinitionRegistry&lt;span style=&quot;border-color: var(--border-color); background-color: initial; font-size: 14px;&quot;&gt;注册bean定义&lt;br style=&quot;font-size: 14px;&quot;&gt;&lt;span style=&quot;font-size: 14px; font-weight: 400;&quot;&gt;org.springframework.beans.factory.support.DefaultListableBeanFactory#registerBeanDefinition&lt;/span&gt;&lt;br style=&quot;font-size: 14px;&quot;&gt;&lt;/span&gt;" style="swimlane;whiteSpace=wrap;html=1;startSize=50;align=left;fontSize=14;" parent="1" vertex="1">
                    <mxGeometry x="150" y="2670" width="1630" height="2320" as="geometry"/>
                </mxCell>
                <mxCell id="317DEmD2zfVz-tkHJyiM-7" value="" style="edgeStyle=orthogonalEdgeStyle;rounded=0;orthogonalLoop=1;jettySize=auto;html=1;fontSize=14;" parent="317DEmD2zfVz-tkHJyiM-1" source="317DEmD2zfVz-tkHJyiM-5" target="317DEmD2zfVz-tkHJyiM-6" edge="1">
                    <mxGeometry relative="1" as="geometry"/>
                </mxCell>
                <mxCell id="317DEmD2zfVz-tkHJyiM-8" value="是" style="edgeLabel;html=1;align=center;verticalAlign=middle;resizable=0;points=[];fontSize=14;" parent="317DEmD2zfVz-tkHJyiM-7" vertex="1" connectable="0">
                    <mxGeometry x="-0.1158" y="3" relative="1" as="geometry">
                        <mxPoint as="offset"/>
                    </mxGeometry>
                </mxCell>
                <mxCell id="317DEmD2zfVz-tkHJyiM-10" value="" style="edgeStyle=orthogonalEdgeStyle;rounded=0;orthogonalLoop=1;jettySize=auto;html=1;fontSize=14;" parent="317DEmD2zfVz-tkHJyiM-1" source="317DEmD2zfVz-tkHJyiM-5" target="317DEmD2zfVz-tkHJyiM-9" edge="1">
                    <mxGeometry relative="1" as="geometry"/>
                </mxCell>
                <mxCell id="317DEmD2zfVz-tkHJyiM-11" value="否" style="edgeLabel;html=1;align=center;verticalAlign=middle;resizable=0;points=[];fontSize=14;" parent="317DEmD2zfVz-tkHJyiM-10" vertex="1" connectable="0">
                    <mxGeometry x="-0.3895" y="3" relative="1" as="geometry">
                        <mxPoint as="offset"/>
                    </mxGeometry>
                </mxCell>
                <mxCell id="317DEmD2zfVz-tkHJyiM-5" value="&lt;div style=&quot;font-family: &amp;quot;Fira Code Medium&amp;quot;, monospace; font-size: 14px;&quot;&gt;bean定义是否为AbstractBeanDefinition的实现&lt;/div&gt;" style="rhombus;whiteSpace=wrap;html=1;fontSize=14;" parent="317DEmD2zfVz-tkHJyiM-1" vertex="1">
                    <mxGeometry x="80" y="110" width="240" height="90" as="geometry"/>
                </mxCell>
                <mxCell id="317DEmD2zfVz-tkHJyiM-12" style="edgeStyle=orthogonalEdgeStyle;rounded=0;orthogonalLoop=1;jettySize=auto;html=1;exitX=0.5;exitY=1;exitDx=0;exitDy=0;entryX=0.5;entryY=0;entryDx=0;entryDy=0;fontSize=14;" parent="317DEmD2zfVz-tkHJyiM-1" source="317DEmD2zfVz-tkHJyiM-6" target="317DEmD2zfVz-tkHJyiM-9" edge="1">
                    <mxGeometry relative="1" as="geometry"/>
                </mxCell>
                <mxCell id="317DEmD2zfVz-tkHJyiM-6" value="校验bean定义" style="whiteSpace=wrap;html=1;fontSize=14;" parent="317DEmD2zfVz-tkHJyiM-1" vertex="1">
                    <mxGeometry x="430" y="125" width="120" height="60" as="geometry"/>
                </mxCell>
                <mxCell id="317DEmD2zfVz-tkHJyiM-14" value="" style="edgeStyle=orthogonalEdgeStyle;rounded=0;orthogonalLoop=1;jettySize=auto;html=1;fontSize=14;" parent="317DEmD2zfVz-tkHJyiM-1" source="317DEmD2zfVz-tkHJyiM-9" target="317DEmD2zfVz-tkHJyiM-13" edge="1">
                    <mxGeometry relative="1" as="geometry"/>
                </mxCell>
                <mxCell id="317DEmD2zfVz-tkHJyiM-9" value="从内存（beanDefinitionMap&lt;span style=&quot;background-color: initial; font-size: 14px;&quot;&gt;）中获取beanName对应的bean定义&lt;/span&gt;" style="whiteSpace=wrap;html=1;fontSize=14;" parent="317DEmD2zfVz-tkHJyiM-1" vertex="1">
                    <mxGeometry x="90" y="295" width="220" height="60" as="geometry"/>
                </mxCell>
                <mxCell id="317DEmD2zfVz-tkHJyiM-16" value="" style="edgeStyle=orthogonalEdgeStyle;rounded=0;orthogonalLoop=1;jettySize=auto;html=1;entryX=0.5;entryY=0;entryDx=0;entryDy=0;fontSize=14;" parent="317DEmD2zfVz-tkHJyiM-1" source="317DEmD2zfVz-tkHJyiM-13" target="317DEmD2zfVz-tkHJyiM-20" edge="1">
                    <mxGeometry relative="1" as="geometry">
                        <mxPoint x="200" y="595" as="targetPoint"/>
                    </mxGeometry>
                </mxCell>
                <mxCell id="317DEmD2zfVz-tkHJyiM-19" value="是" style="edgeLabel;html=1;align=center;verticalAlign=middle;resizable=0;points=[];fontSize=14;" parent="317DEmD2zfVz-tkHJyiM-16" vertex="1" connectable="0">
                    <mxGeometry x="-0.1778" relative="1" as="geometry">
                        <mxPoint as="offset"/>
                    </mxGeometry>
                </mxCell>
                <mxCell id="317DEmD2zfVz-tkHJyiM-13" value="bean定义是否存在" style="rhombus;whiteSpace=wrap;html=1;fontSize=14;" parent="317DEmD2zfVz-tkHJyiM-1" vertex="1">
                    <mxGeometry x="120" y="425" width="160" height="80" as="geometry"/>
                </mxCell>
                <mxCell id="317DEmD2zfVz-tkHJyiM-25" value="" style="edgeStyle=orthogonalEdgeStyle;rounded=0;orthogonalLoop=1;jettySize=auto;html=1;entryX=0.5;entryY=0;entryDx=0;entryDy=0;fontSize=14;" parent="317DEmD2zfVz-tkHJyiM-1" source="317DEmD2zfVz-tkHJyiM-20" target="317DEmD2zfVz-tkHJyiM-27" edge="1">
                    <mxGeometry relative="1" as="geometry">
                        <mxPoint x="200" y="750" as="targetPoint"/>
                    </mxGeometry>
                </mxCell>
                <mxCell id="317DEmD2zfVz-tkHJyiM-26" value="是" style="edgeLabel;html=1;align=center;verticalAlign=middle;resizable=0;points=[];fontSize=14;" parent="317DEmD2zfVz-tkHJyiM-25" vertex="1" connectable="0">
                    <mxGeometry x="0.0222" y="5" relative="1" as="geometry">
                        <mxPoint as="offset"/>
                    </mxGeometry>
                </mxCell>
                <mxCell id="317DEmD2zfVz-tkHJyiM-20" value="是否可以覆盖" style="rhombus;whiteSpace=wrap;html=1;fontSize=14;" parent="317DEmD2zfVz-tkHJyiM-1" vertex="1">
                    <mxGeometry x="140" y="580" width="120" height="80" as="geometry"/>
                </mxCell>
                <mxCell id="317DEmD2zfVz-tkHJyiM-29" value="" style="edgeStyle=orthogonalEdgeStyle;rounded=0;orthogonalLoop=1;jettySize=auto;html=1;fontSize=14;" parent="317DEmD2zfVz-tkHJyiM-1" source="317DEmD2zfVz-tkHJyiM-27" target="317DEmD2zfVz-tkHJyiM-28" edge="1">
                    <mxGeometry relative="1" as="geometry"/>
                </mxCell>
                <mxCell id="317DEmD2zfVz-tkHJyiM-30" value="否" style="edgeLabel;html=1;align=center;verticalAlign=middle;resizable=0;points=[];fontSize=14;" parent="317DEmD2zfVz-tkHJyiM-29" vertex="1" connectable="0">
                    <mxGeometry x="-0.1333" relative="1" as="geometry">
                        <mxPoint as="offset"/>
                    </mxGeometry>
                </mxCell>
                <mxCell id="317DEmD2zfVz-tkHJyiM-32" value="" style="edgeStyle=orthogonalEdgeStyle;rounded=0;orthogonalLoop=1;jettySize=auto;html=1;fontSize=14;" parent="317DEmD2zfVz-tkHJyiM-1" source="317DEmD2zfVz-tkHJyiM-27" target="317DEmD2zfVz-tkHJyiM-31" edge="1">
                    <mxGeometry relative="1" as="geometry"/>
                </mxCell>
                <mxCell id="317DEmD2zfVz-tkHJyiM-33" value="是" style="edgeLabel;html=1;align=center;verticalAlign=middle;resizable=0;points=[];fontSize=14;" parent="317DEmD2zfVz-tkHJyiM-32" vertex="1" connectable="0">
                    <mxGeometry x="-0.0625" y="2" relative="1" as="geometry">
                        <mxPoint as="offset"/>
                    </mxGeometry>
                </mxCell>
                <mxCell id="317DEmD2zfVz-tkHJyiM-27" value="bean作用标识是否变大&lt;br style=&quot;font-size: 14px;&quot;&gt;(非用户自定义bean)" style="rhombus;whiteSpace=wrap;html=1;fontSize=14;" parent="317DEmD2zfVz-tkHJyiM-1" vertex="1">
                    <mxGeometry x="110" y="730" width="180" height="100" as="geometry"/>
                </mxCell>
                <mxCell id="317DEmD2zfVz-tkHJyiM-35" value="" style="edgeStyle=orthogonalEdgeStyle;rounded=0;orthogonalLoop=1;jettySize=auto;html=1;fontSize=14;" parent="317DEmD2zfVz-tkHJyiM-1" source="317DEmD2zfVz-tkHJyiM-28" target="317DEmD2zfVz-tkHJyiM-34" edge="1">
                    <mxGeometry relative="1" as="geometry"/>
                </mxCell>
                <mxCell id="317DEmD2zfVz-tkHJyiM-36" value="否" style="edgeLabel;html=1;align=center;verticalAlign=middle;resizable=0;points=[];fontSize=14;" parent="317DEmD2zfVz-tkHJyiM-35" vertex="1" connectable="0">
                    <mxGeometry y="-5" relative="1" as="geometry">
                        <mxPoint as="offset"/>
                    </mxGeometry>
                </mxCell>
                <mxCell id="317DEmD2zfVz-tkHJyiM-38" value="" style="edgeStyle=orthogonalEdgeStyle;rounded=0;orthogonalLoop=1;jettySize=auto;html=1;fontSize=14;" parent="317DEmD2zfVz-tkHJyiM-1" source="317DEmD2zfVz-tkHJyiM-28" target="317DEmD2zfVz-tkHJyiM-37" edge="1">
                    <mxGeometry relative="1" as="geometry"/>
                </mxCell>
                <mxCell id="317DEmD2zfVz-tkHJyiM-41" value="是" style="edgeLabel;html=1;align=center;verticalAlign=middle;resizable=0;points=[];fontSize=14;" parent="317DEmD2zfVz-tkHJyiM-38" vertex="1" connectable="0">
                    <mxGeometry x="-0.2667" y="1" relative="1" as="geometry">
                        <mxPoint as="offset"/>
                    </mxGeometry>
                </mxCell>
                <mxCell id="317DEmD2zfVz-tkHJyiM-28" value="bean定义前后对象是否equals" style="rhombus;whiteSpace=wrap;html=1;fontSize=14;" parent="317DEmD2zfVz-tkHJyiM-1" vertex="1">
                    <mxGeometry x="120" y="920" width="160" height="80" as="geometry"/>
                </mxCell>
                <mxCell id="317DEmD2zfVz-tkHJyiM-43" style="edgeStyle=orthogonalEdgeStyle;rounded=0;orthogonalLoop=1;jettySize=auto;html=1;exitX=0.5;exitY=1;exitDx=0;exitDy=0;entryX=1;entryY=0.5;entryDx=0;entryDy=0;fontSize=14;" parent="317DEmD2zfVz-tkHJyiM-1" source="317DEmD2zfVz-tkHJyiM-31" target="317DEmD2zfVz-tkHJyiM-39" edge="1">
                    <mxGeometry relative="1" as="geometry"/>
                </mxCell>
                <mxCell id="317DEmD2zfVz-tkHJyiM-31" value="打印日志（使用框架级bean定义替换用户自定义bean定义）" style="whiteSpace=wrap;html=1;fontSize=14;" parent="317DEmD2zfVz-tkHJyiM-1" vertex="1">
                    <mxGeometry x="410" y="850" width="190" height="60" as="geometry"/>
                </mxCell>
                <mxCell id="317DEmD2zfVz-tkHJyiM-42" style="edgeStyle=orthogonalEdgeStyle;rounded=0;orthogonalLoop=1;jettySize=auto;html=1;exitX=0.5;exitY=1;exitDx=0;exitDy=0;entryX=1;entryY=0.5;entryDx=0;entryDy=0;fontSize=14;" parent="317DEmD2zfVz-tkHJyiM-1" source="317DEmD2zfVz-tkHJyiM-34" target="317DEmD2zfVz-tkHJyiM-39" edge="1">
                    <mxGeometry relative="1" as="geometry"/>
                </mxCell>
                <mxCell id="317DEmD2zfVz-tkHJyiM-34" value="打印日志（使用其他bean定义覆盖）" style="whiteSpace=wrap;html=1;fontSize=14;" parent="317DEmD2zfVz-tkHJyiM-1" vertex="1">
                    <mxGeometry x="320" y="1020" width="140" height="50" as="geometry"/>
                </mxCell>
                <mxCell id="317DEmD2zfVz-tkHJyiM-40" value="" style="edgeStyle=orthogonalEdgeStyle;rounded=0;orthogonalLoop=1;jettySize=auto;html=1;fontSize=14;" parent="317DEmD2zfVz-tkHJyiM-1" source="317DEmD2zfVz-tkHJyiM-37" target="317DEmD2zfVz-tkHJyiM-39" edge="1">
                    <mxGeometry relative="1" as="geometry"/>
                </mxCell>
                <mxCell id="317DEmD2zfVz-tkHJyiM-37" value="打印日志（使用相同bean定义覆盖）" style="whiteSpace=wrap;html=1;fontSize=14;" parent="317DEmD2zfVz-tkHJyiM-1" vertex="1">
                    <mxGeometry x="140" y="1090" width="120" height="50" as="geometry"/>
                </mxCell>
                <mxCell id="kCVniKHf_UiS8Q5NYrCm-96" style="edgeStyle=orthogonalEdgeStyle;rounded=0;orthogonalLoop=1;jettySize=auto;html=1;exitX=0.5;exitY=1;exitDx=0;exitDy=0;entryX=0;entryY=0.5;entryDx=0;entryDy=0;" parent="317DEmD2zfVz-tkHJyiM-1" source="317DEmD2zfVz-tkHJyiM-39" target="-arElvJ3-LxENnnvLyIU-1" edge="1">
                    <mxGeometry relative="1" as="geometry"/>
                </mxCell>
                <mxCell id="317DEmD2zfVz-tkHJyiM-39" value="向内存（beanDefinitionMap&lt;span style=&quot;background-color: initial; font-size: 14px;&quot;&gt;）中put bean定义进行覆盖&lt;/span&gt;" style="whiteSpace=wrap;html=1;align=left;fontSize=14;" parent="317DEmD2zfVz-tkHJyiM-1" vertex="1">
                    <mxGeometry x="100" y="1215" width="200" height="60" as="geometry"/>
                </mxCell>
                <mxCell id="317DEmD2zfVz-tkHJyiM-45" value="" style="edgeStyle=orthogonalEdgeStyle;rounded=0;orthogonalLoop=1;jettySize=auto;html=1;fontSize=14;" parent="317DEmD2zfVz-tkHJyiM-1" source="317DEmD2zfVz-tkHJyiM-21" target="317DEmD2zfVz-tkHJyiM-44" edge="1">
                    <mxGeometry relative="1" as="geometry"/>
                </mxCell>
                <mxCell id="317DEmD2zfVz-tkHJyiM-21" value="throw&amp;nbsp;BeanDefinitionOverrideException" style="whiteSpace=wrap;html=1;fontSize=14;" parent="317DEmD2zfVz-tkHJyiM-1" vertex="1">
                    <mxGeometry x="570" y="710" width="280" height="50" as="geometry"/>
                </mxCell>
                <mxCell id="317DEmD2zfVz-tkHJyiM-22" value="" style="edgeStyle=orthogonalEdgeStyle;rounded=0;orthogonalLoop=1;jettySize=auto;html=1;fontSize=14;" parent="317DEmD2zfVz-tkHJyiM-1" source="317DEmD2zfVz-tkHJyiM-20" target="317DEmD2zfVz-tkHJyiM-21" edge="1">
                    <mxGeometry relative="1" as="geometry"/>
                </mxCell>
                <mxCell id="317DEmD2zfVz-tkHJyiM-23" value="否" style="edgeLabel;html=1;align=center;verticalAlign=middle;resizable=0;points=[];fontSize=14;" parent="317DEmD2zfVz-tkHJyiM-22" vertex="1" connectable="0">
                    <mxGeometry x="0.25" y="1" relative="1" as="geometry">
                        <mxPoint as="offset"/>
                    </mxGeometry>
                </mxCell>
                <mxCell id="317DEmD2zfVz-tkHJyiM-44" value="" style="ellipse;whiteSpace=wrap;html=1;fontSize=14;" parent="317DEmD2zfVz-tkHJyiM-1" vertex="1">
                    <mxGeometry x="670" y="870" width="80" height="80" as="geometry"/>
                </mxCell>
                <mxCell id="317DEmD2zfVz-tkHJyiM-54" value="" style="edgeStyle=orthogonalEdgeStyle;rounded=0;orthogonalLoop=1;jettySize=auto;html=1;entryX=0.5;entryY=0;entryDx=0;entryDy=0;fontSize=14;" parent="317DEmD2zfVz-tkHJyiM-1" source="317DEmD2zfVz-tkHJyiM-50" target="317DEmD2zfVz-tkHJyiM-59" edge="1">
                    <mxGeometry relative="1" as="geometry">
                        <mxPoint x="1030" y="690" as="targetPoint"/>
                    </mxGeometry>
                </mxCell>
                <mxCell id="317DEmD2zfVz-tkHJyiM-57" value="是" style="edgeLabel;html=1;align=center;verticalAlign=middle;resizable=0;points=[];fontSize=14;" parent="317DEmD2zfVz-tkHJyiM-54" vertex="1" connectable="0">
                    <mxGeometry x="-0.1804" y="1" relative="1" as="geometry">
                        <mxPoint as="offset"/>
                    </mxGeometry>
                </mxCell>
                <mxCell id="317DEmD2zfVz-tkHJyiM-56" value="" style="edgeStyle=orthogonalEdgeStyle;rounded=0;orthogonalLoop=1;jettySize=auto;html=1;fontSize=14;" parent="317DEmD2zfVz-tkHJyiM-1" source="317DEmD2zfVz-tkHJyiM-50" target="317DEmD2zfVz-tkHJyiM-55" edge="1">
                    <mxGeometry relative="1" as="geometry"/>
                </mxCell>
                <mxCell id="317DEmD2zfVz-tkHJyiM-65" value="否" style="edgeLabel;html=1;align=center;verticalAlign=middle;resizable=0;points=[];fontSize=14;" parent="317DEmD2zfVz-tkHJyiM-56" vertex="1" connectable="0">
                    <mxGeometry x="-0.2295" y="3" relative="1" as="geometry">
                        <mxPoint as="offset"/>
                    </mxGeometry>
                </mxCell>
                <mxCell id="317DEmD2zfVz-tkHJyiM-50" value="bean是否开始创建" style="rhombus;whiteSpace=wrap;html=1;fontSize=14;" parent="317DEmD2zfVz-tkHJyiM-1" vertex="1">
                    <mxGeometry x="920" y="520" width="180" height="80" as="geometry"/>
                </mxCell>
                <mxCell id="317DEmD2zfVz-tkHJyiM-18" value="" style="edgeStyle=orthogonalEdgeStyle;rounded=0;orthogonalLoop=1;jettySize=auto;html=1;fontSize=14;entryX=0.5;entryY=0;entryDx=0;entryDy=0;" parent="317DEmD2zfVz-tkHJyiM-1" source="317DEmD2zfVz-tkHJyiM-13" target="317DEmD2zfVz-tkHJyiM-50" edge="1">
                    <mxGeometry relative="1" as="geometry">
                        <mxPoint x="990" y="465" as="targetPoint"/>
                    </mxGeometry>
                </mxCell>
                <mxCell id="317DEmD2zfVz-tkHJyiM-46" value="否" style="edgeLabel;html=1;align=center;verticalAlign=middle;resizable=0;points=[];fontSize=14;" parent="317DEmD2zfVz-tkHJyiM-18" vertex="1" connectable="0">
                    <mxGeometry x="-0.1549" relative="1" as="geometry">
                        <mxPoint as="offset"/>
                    </mxGeometry>
                </mxCell>
                <mxCell id="317DEmD2zfVz-tkHJyiM-73" value="" style="edgeStyle=orthogonalEdgeStyle;rounded=0;orthogonalLoop=1;jettySize=auto;html=1;fontSize=14;" parent="317DEmD2zfVz-tkHJyiM-1" source="317DEmD2zfVz-tkHJyiM-55" target="317DEmD2zfVz-tkHJyiM-72" edge="1">
                    <mxGeometry relative="1" as="geometry"/>
                </mxCell>
                <mxCell id="317DEmD2zfVz-tkHJyiM-55" value="向内存（beanDefinitionMap&lt;span style=&quot;border-color: var(--border-color); text-align: left; background-color: initial; font-size: 14px;&quot;&gt;）中put bean定义进行覆盖&lt;/span&gt;" style="whiteSpace=wrap;html=1;fontSize=14;" parent="317DEmD2zfVz-tkHJyiM-1" vertex="1">
                    <mxGeometry x="1210" y="730" width="200" height="60" as="geometry"/>
                </mxCell>
                <mxCell id="317DEmD2zfVz-tkHJyiM-66" value="" style="swimlane;startSize=0;fontSize=14;" parent="317DEmD2zfVz-tkHJyiM-1" vertex="1">
                    <mxGeometry x="900" y="707.5" width="270" height="345" as="geometry"/>
                </mxCell>
                <mxCell id="317DEmD2zfVz-tkHJyiM-59" value="向内存（beanDefinitionMap&lt;span style=&quot;background-color: initial; font-size: 14px;&quot;&gt;）中put bean定义进行覆盖&lt;/span&gt;" style="whiteSpace=wrap;html=1;align=left;fontSize=14;" parent="317DEmD2zfVz-tkHJyiM-66" vertex="1">
                    <mxGeometry x="10" y="55" width="200" height="60" as="geometry"/>
                </mxCell>
                <mxCell id="317DEmD2zfVz-tkHJyiM-63" value="从单例bean名称集合（手动注册的）中移除该beanName" style="whiteSpace=wrap;html=1;fontSize=14;align=left;" parent="317DEmD2zfVz-tkHJyiM-66" vertex="1">
                    <mxGeometry x="10" y="260" width="200" height="60" as="geometry"/>
                </mxCell>
                <mxCell id="317DEmD2zfVz-tkHJyiM-61" value="更新bean定义集合" style="whiteSpace=wrap;html=1;fontSize=14;align=left;" parent="317DEmD2zfVz-tkHJyiM-66" vertex="1">
                    <mxGeometry x="50" y="140" width="120" height="60" as="geometry"/>
                </mxCell>
                <mxCell id="317DEmD2zfVz-tkHJyiM-62" value="" style="edgeStyle=orthogonalEdgeStyle;rounded=0;orthogonalLoop=1;jettySize=auto;html=1;fontSize=14;" parent="317DEmD2zfVz-tkHJyiM-66" source="317DEmD2zfVz-tkHJyiM-59" target="317DEmD2zfVz-tkHJyiM-61" edge="1">
                    <mxGeometry relative="1" as="geometry"/>
                </mxCell>
                <mxCell id="317DEmD2zfVz-tkHJyiM-64" value="" style="edgeStyle=orthogonalEdgeStyle;rounded=0;orthogonalLoop=1;jettySize=auto;html=1;fontSize=14;" parent="317DEmD2zfVz-tkHJyiM-66" source="317DEmD2zfVz-tkHJyiM-61" target="317DEmD2zfVz-tkHJyiM-63" edge="1">
                    <mxGeometry relative="1" as="geometry"/>
                </mxCell>
                <mxCell id="317DEmD2zfVz-tkHJyiM-71" value="同步锁" style="text;html=1;align=center;verticalAlign=middle;resizable=0;points=[];autosize=1;strokeColor=#6c8ebf;fillColor=#dae8fc;fontSize=14;" parent="317DEmD2zfVz-tkHJyiM-66" vertex="1">
                    <mxGeometry x="15" y="15" width="70" height="30" as="geometry"/>
                </mxCell>
                <mxCell id="kCVniKHf_UiS8Q5NYrCm-97" style="edgeStyle=orthogonalEdgeStyle;rounded=0;orthogonalLoop=1;jettySize=auto;html=1;exitX=0.5;exitY=1;exitDx=0;exitDy=0;entryX=0.5;entryY=0;entryDx=0;entryDy=0;" parent="317DEmD2zfVz-tkHJyiM-1" source="317DEmD2zfVz-tkHJyiM-68" target="-arElvJ3-LxENnnvLyIU-1" edge="1">
                    <mxGeometry relative="1" as="geometry">
                        <Array as="points">
                            <mxPoint x="1010" y="1330"/>
                            <mxPoint x="510" y="1330"/>
                        </Array>
                    </mxGeometry>
                </mxCell>
                <mxCell id="317DEmD2zfVz-tkHJyiM-68" value="清空冻结的bean定义名称&lt;br&gt;frozenBeanDefinitionNames" style="whiteSpace=wrap;html=1;fontSize=14;align=left;" parent="317DEmD2zfVz-tkHJyiM-1" vertex="1">
                    <mxGeometry x="920" y="1140" width="180" height="60" as="geometry"/>
                </mxCell>
                <mxCell id="317DEmD2zfVz-tkHJyiM-69" value="" style="edgeStyle=orthogonalEdgeStyle;rounded=0;orthogonalLoop=1;jettySize=auto;html=1;fontSize=14;" parent="317DEmD2zfVz-tkHJyiM-1" source="317DEmD2zfVz-tkHJyiM-63" target="317DEmD2zfVz-tkHJyiM-68" edge="1">
                    <mxGeometry relative="1" as="geometry"/>
                </mxCell>
                <mxCell id="317DEmD2zfVz-tkHJyiM-82" value="" style="edgeStyle=orthogonalEdgeStyle;rounded=0;orthogonalLoop=1;jettySize=auto;html=1;fontSize=14;" parent="317DEmD2zfVz-tkHJyiM-1" source="317DEmD2zfVz-tkHJyiM-72" target="317DEmD2zfVz-tkHJyiM-81" edge="1">
                    <mxGeometry relative="1" as="geometry"/>
                </mxCell>
                <mxCell id="317DEmD2zfVz-tkHJyiM-72" value="将bean定义添加到bean定义集合中" style="whiteSpace=wrap;html=1;fontSize=14;" parent="317DEmD2zfVz-tkHJyiM-1" vertex="1">
                    <mxGeometry x="1240" y="870" width="140" height="60" as="geometry"/>
                </mxCell>
                <mxCell id="317DEmD2zfVz-tkHJyiM-83" style="edgeStyle=orthogonalEdgeStyle;rounded=0;orthogonalLoop=1;jettySize=auto;html=1;exitX=0.5;exitY=1;exitDx=0;exitDy=0;entryX=1;entryY=0.5;entryDx=0;entryDy=0;fontSize=14;" parent="317DEmD2zfVz-tkHJyiM-1" source="317DEmD2zfVz-tkHJyiM-81" target="317DEmD2zfVz-tkHJyiM-68" edge="1">
                    <mxGeometry relative="1" as="geometry"/>
                </mxCell>
                <mxCell id="317DEmD2zfVz-tkHJyiM-81" value="从单例bean名称集合（手动注册的）中移除该beanName" style="whiteSpace=wrap;html=1;fontSize=14;align=left;" parent="317DEmD2zfVz-tkHJyiM-1" vertex="1">
                    <mxGeometry x="1210" y="990" width="200" height="60" as="geometry"/>
                </mxCell>
                <mxCell id="-arElvJ3-LxENnnvLyIU-4" value="" style="edgeStyle=orthogonalEdgeStyle;rounded=0;orthogonalLoop=1;jettySize=auto;html=1;" parent="317DEmD2zfVz-tkHJyiM-1" source="-arElvJ3-LxENnnvLyIU-1" target="-arElvJ3-LxENnnvLyIU-3" edge="1">
                    <mxGeometry relative="1" as="geometry"/>
                </mxCell>
                <mxCell id="kCVniKHf_UiS8Q5NYrCm-1" value="是" style="edgeLabel;html=1;align=center;verticalAlign=middle;resizable=0;points=[];" parent="-arElvJ3-LxENnnvLyIU-4" vertex="1" connectable="0">
                    <mxGeometry x="-0.0286" y="4" relative="1" as="geometry">
                        <mxPoint x="-4" y="-23" as="offset"/>
                    </mxGeometry>
                </mxCell>
                <mxCell id="kCVniKHf_UiS8Q5NYrCm-3" value="" style="edgeStyle=orthogonalEdgeStyle;rounded=0;orthogonalLoop=1;jettySize=auto;html=1;entryX=0.5;entryY=0;entryDx=0;entryDy=0;" parent="317DEmD2zfVz-tkHJyiM-1" source="-arElvJ3-LxENnnvLyIU-1" target="kCVniKHf_UiS8Q5NYrCm-89" edge="1">
                    <mxGeometry relative="1" as="geometry">
                        <mxPoint x="850.0434782608695" y="1590" as="targetPoint"/>
                    </mxGeometry>
                </mxCell>
                <mxCell id="kCVniKHf_UiS8Q5NYrCm-4" value="否" style="edgeLabel;html=1;align=center;verticalAlign=middle;resizable=0;points=[];" parent="kCVniKHf_UiS8Q5NYrCm-3" vertex="1" connectable="0">
                    <mxGeometry x="-0.3" relative="1" as="geometry">
                        <mxPoint as="offset"/>
                    </mxGeometry>
                </mxCell>
                <mxCell id="-arElvJ3-LxENnnvLyIU-1" value="bean定义已经存在或者存在beanName对应的单例" style="rhombus;whiteSpace=wrap;html=1;fontSize=14;align=center;" parent="317DEmD2zfVz-tkHJyiM-1" vertex="1">
                    <mxGeometry x="410" y="1440" width="200" height="90" as="geometry"/>
                </mxCell>
                <mxCell id="kCVniKHf_UiS8Q5NYrCm-5" value="重置注册的BeanDefinition缓存" style="swimlane;whiteSpace=wrap;html=1;" parent="317DEmD2zfVz-tkHJyiM-1" vertex="1">
                    <mxGeometry x="350" y="1590" width="350" height="440" as="geometry"/>
                </mxCell>
                <mxCell id="kCVniKHf_UiS8Q5NYrCm-8" value="" style="edgeStyle=orthogonalEdgeStyle;rounded=0;orthogonalLoop=1;jettySize=auto;html=1;" parent="kCVniKHf_UiS8Q5NYrCm-5" source="-arElvJ3-LxENnnvLyIU-3" target="kCVniKHf_UiS8Q5NYrCm-7" edge="1">
                    <mxGeometry relative="1" as="geometry"/>
                </mxCell>
                <mxCell id="-arElvJ3-LxENnnvLyIU-3" value="如果该beanName发生过merge操作,remove已经合并出的beanDefinition" style="whiteSpace=wrap;html=1;fontSize=14;align=left;" parent="kCVniKHf_UiS8Q5NYrCm-5" vertex="1">
                    <mxGeometry x="40" y="61" width="240" height="59" as="geometry"/>
                </mxCell>
                <mxCell id="kCVniKHf_UiS8Q5NYrCm-10" value="" style="edgeStyle=orthogonalEdgeStyle;rounded=0;orthogonalLoop=1;jettySize=auto;html=1;" parent="kCVniKHf_UiS8Q5NYrCm-5" source="kCVniKHf_UiS8Q5NYrCm-7" target="kCVniKHf_UiS8Q5NYrCm-9" edge="1">
                    <mxGeometry relative="1" as="geometry"/>
                </mxCell>
                <mxCell id="kCVniKHf_UiS8Q5NYrCm-7" value="从单例缓存中remove该bean" style="whiteSpace=wrap;html=1;fontSize=14;align=left;" parent="kCVniKHf_UiS8Q5NYrCm-5" vertex="1">
                    <mxGeometry x="60" y="150" width="200" height="60" as="geometry"/>
                </mxCell>
                <mxCell id="kCVniKHf_UiS8Q5NYrCm-85" value="" style="edgeStyle=orthogonalEdgeStyle;rounded=0;orthogonalLoop=1;jettySize=auto;html=1;" parent="kCVniKHf_UiS8Q5NYrCm-5" source="kCVniKHf_UiS8Q5NYrCm-9" target="kCVniKHf_UiS8Q5NYrCm-84" edge="1">
                    <mxGeometry relative="1" as="geometry"/>
                </mxCell>
                <mxCell id="kCVniKHf_UiS8Q5NYrCm-9" value="通知MergedBeanDefinitionPostProcessor,这个beanDefinition已经进行了重置" style="whiteSpace=wrap;html=1;fontSize=14;align=left;" parent="kCVniKHf_UiS8Q5NYrCm-5" vertex="1">
                    <mxGeometry x="25" y="230" width="270" height="61" as="geometry"/>
                </mxCell>
                <mxCell id="kCVniKHf_UiS8Q5NYrCm-88" style="edgeStyle=orthogonalEdgeStyle;rounded=0;orthogonalLoop=1;jettySize=auto;html=1;exitX=1;exitY=0.5;exitDx=0;exitDy=0;entryX=1;entryY=0.5;entryDx=0;entryDy=0;" parent="kCVniKHf_UiS8Q5NYrCm-5" source="kCVniKHf_UiS8Q5NYrCm-84" target="-arElvJ3-LxENnnvLyIU-3" edge="1">
                    <mxGeometry relative="1" as="geometry">
                        <Array as="points">
                            <mxPoint x="330" y="375"/>
                            <mxPoint x="330" y="90"/>
                        </Array>
                    </mxGeometry>
                </mxCell>
                <mxCell id="kCVniKHf_UiS8Q5NYrCm-84" value="&lt;br&gt;&lt;b&gt;清除子bean定义&lt;br&gt;&lt;/b&gt;找出容器中与当前beanName不相同，但paretName跟当前beanName相同的bean定义，并递归调用resetBeanDefinition&lt;br&gt;。" style="whiteSpace=wrap;html=1;fontSize=14;align=left;" parent="kCVniKHf_UiS8Q5NYrCm-5" vertex="1">
                    <mxGeometry x="30" y="330" width="260" height="89.5" as="geometry"/>
                </mxCell>
                <mxCell id="kCVniKHf_UiS8Q5NYrCm-87" value="" style="edgeStyle=orthogonalEdgeStyle;rounded=0;orthogonalLoop=1;jettySize=auto;html=1;" parent="317DEmD2zfVz-tkHJyiM-1" source="kCVniKHf_UiS8Q5NYrCm-84" target="kCVniKHf_UiS8Q5NYrCm-86" edge="1">
                    <mxGeometry relative="1" as="geometry"/>
                </mxCell>
                <mxCell id="kCVniKHf_UiS8Q5NYrCm-91" value="" style="edgeStyle=orthogonalEdgeStyle;rounded=0;orthogonalLoop=1;jettySize=auto;html=1;" parent="317DEmD2zfVz-tkHJyiM-1" source="kCVniKHf_UiS8Q5NYrCm-89" target="kCVniKHf_UiS8Q5NYrCm-90" edge="1">
                    <mxGeometry relative="1" as="geometry"/>
                </mxCell>
                <mxCell id="kCVniKHf_UiS8Q5NYrCm-92" value="是" style="edgeLabel;html=1;align=center;verticalAlign=middle;resizable=0;points=[];" parent="kCVniKHf_UiS8Q5NYrCm-91" vertex="1" connectable="0">
                    <mxGeometry x="-0.0599" y="2" relative="1" as="geometry">
                        <mxPoint as="offset"/>
                    </mxGeometry>
                </mxCell>
                <mxCell id="kCVniKHf_UiS8Q5NYrCm-89" value="bean定义是否冻结" style="rhombus;whiteSpace=wrap;html=1;" parent="317DEmD2zfVz-tkHJyiM-1" vertex="1">
                    <mxGeometry x="810" y="1570" width="180" height="80" as="geometry"/>
                </mxCell>
                <mxCell id="kCVniKHf_UiS8Q5NYrCm-93" style="edgeStyle=orthogonalEdgeStyle;rounded=0;orthogonalLoop=1;jettySize=auto;html=1;exitX=0.5;exitY=1;exitDx=0;exitDy=0;entryX=1;entryY=0.5;entryDx=0;entryDy=0;" parent="317DEmD2zfVz-tkHJyiM-1" source="kCVniKHf_UiS8Q5NYrCm-90" target="kCVniKHf_UiS8Q5NYrCm-86" edge="1">
                    <mxGeometry relative="1" as="geometry"/>
                </mxCell>
                <mxCell id="kCVniKHf_UiS8Q5NYrCm-90" value="清除beanName缓存" style="whiteSpace=wrap;html=1;" parent="317DEmD2zfVz-tkHJyiM-1" vertex="1">
                    <mxGeometry x="840" y="1720" width="120" height="60" as="geometry"/>
                </mxCell>
                <mxCell id="kCVniKHf_UiS8Q5NYrCm-86" value="注册bean别名" style="whiteSpace=wrap;html=1;fontSize=14;align=left;" parent="317DEmD2zfVz-tkHJyiM-1" vertex="1">
                    <mxGeometry x="450" y="2170" width="120" height="60" as="geometry"/>
                </mxCell>
                <mxCell id="317DEmD2zfVz-tkHJyiM-4" value="" style="edgeStyle=orthogonalEdgeStyle;rounded=0;orthogonalLoop=1;jettySize=auto;html=1;fontSize=14;" parent="1" source="317DEmD2zfVz-tkHJyiM-2" target="317DEmD2zfVz-tkHJyiM-3" edge="1">
                    <mxGeometry relative="1" as="geometry"/>
                </mxCell>
                <mxCell id="317DEmD2zfVz-tkHJyiM-2" value="注册beanName对应的别名" style="whiteSpace=wrap;html=1;fontSize=14;align=left;labelBackgroundColor=none;" parent="1" vertex="1">
                    <mxGeometry x="-460" y="3330" width="200" height="60" as="geometry"/>
                </mxCell>
                <mxCell id="317DEmD2zfVz-tkHJyiM-3" value="" style="ellipse;whiteSpace=wrap;html=1;fontSize=14;align=left;labelBackgroundColor=none;" parent="1" vertex="1">
                    <mxGeometry x="-400" y="3460" width="80" height="80" as="geometry"/>
                </mxCell>
                <mxCell id="kCVniKHf_UiS8Q5NYrCm-94" value="" style="ellipse;whiteSpace=wrap;html=1;fontSize=14;align=left;" parent="1" vertex="1">
                    <mxGeometry x="620" y="5060" width="80" height="80" as="geometry"/>
                </mxCell>
                <mxCell id="kCVniKHf_UiS8Q5NYrCm-95" value="" style="edgeStyle=orthogonalEdgeStyle;rounded=0;orthogonalLoop=1;jettySize=auto;html=1;" parent="1" source="kCVniKHf_UiS8Q5NYrCm-86" target="kCVniKHf_UiS8Q5NYrCm-94" edge="1">
                    <mxGeometry relative="1" as="geometry"/>
                </mxCell>
            </root>
        </mxGraphModel>
    </diagram>
</mxfile>